<svg width="20" height="20" viewBox="0 0 20 20" fill="none" xmlns="http://www.w3.org/2000/svg">
<path d="M16.7663 4.2377C16.3753 3.84531 15.9111 3.53404 15.4002 3.32168C14.8893 3.10931 14.3417 3 13.7887 3C13.2357 3 12.6881 3.10931 12.1772 3.32168C11.6663 3.53404 11.2021 3.84531 10.8112 4.2377L9.9998 5.05166L9.18843 4.2377C8.39874 3.44548 7.32768 3.00041 6.21089 3.00041C5.09409 3.00041 4.02303 3.44548 3.23334 4.2377C2.44365 5.02993 2 6.10441 2 7.22479C2 8.34516 2.44365 9.41965 3.23334 10.2119L4.0447 11.0258L9.9998 17L15.9549 11.0258L16.7663 10.2119C17.1574 9.81967 17.4677 9.354 17.6794 8.84146C17.891 8.32893 18 7.77958 18 7.22479C18 6.67 17.891 6.12064 17.6794 5.60811C17.4677 5.09558 17.1574 4.6299 16.7663 4.2377V4.2377Z" stroke="url(#paint0_linear_3_592)" stroke-width="1.5" stroke-linecap="round" stroke-linejoin="round"/>
<defs>
<linearGradient id="paint0_linear_3_592" x1="18" y1="17" x2="1.74075" y2="16.6921" gradientUnits="userSpaceOnUse">
<stop stop-color="#888BF4"/>
<stop offset="1" stop-color="#5151C6"/>
</linearGradient>
</defs>
</svg>
