<svg width="24" height="24" viewBox="0 0 24 24" fill="none" xmlns="http://www.w3.org/2000/svg">
<path d="M7.92 1.25H4.54V2.75H7.92V1.25ZM11.21 4.561C11.21 2.74366 9.75205 1.25 7.92 1.25V2.75C8.90795 2.75 9.71 3.55634 9.71 4.561H11.21ZM11.21 7.97V4.561H9.71V7.97H11.21ZM7.92 11.28C9.74996 11.28 11.21 9.79845 11.21 7.97H9.71C9.71 8.98155 8.91004 9.78 7.92 9.78V11.28ZM4.54 11.28H7.92V9.78H4.54V11.28ZM1.25 7.97C1.25 9.80038 2.72196 11.28 4.54 11.28V9.78C3.55804 9.78 2.75 8.97962 2.75 7.97H1.25ZM1.25 4.561V7.97H2.75V4.561H1.25ZM4.54 1.25C2.71987 1.25 1.25 2.74173 1.25 4.561H2.75C2.75 3.55827 3.56013 2.75 4.54 2.75V1.25ZM7.92 12.7197H4.54V14.2197H7.92V12.7197ZM11.21 16.0307C11.21 14.2026 9.75034 12.7197 7.92 12.7197V14.2197C8.90966 14.2197 9.71 15.0188 9.71 16.0307H11.21ZM11.21 19.4397V16.0307H9.71V19.4397H11.21ZM7.92 22.7497C9.75186 22.7497 11.21 21.2562 11.21 19.4397H9.71C9.71 20.4432 8.90814 21.2497 7.92 21.2497V22.7497ZM4.54 22.7497H7.92V21.2497H4.54V22.7497ZM1.25 19.4397C1.25 21.2582 2.72006 22.7497 4.54 22.7497V21.2497C3.55994 21.2497 2.75 20.4412 2.75 19.4397H1.25ZM1.25 16.0307V19.4397H2.75V16.0307H1.25ZM4.54 12.7197C2.72158 12.7197 1.25 14.2007 1.25 16.0307H2.75C2.75 15.0207 3.55842 14.2197 4.54 14.2197V12.7197ZM16.0801 2.75H19.4601V1.25H16.0801V2.75ZM14.2901 4.561C14.2901 3.55634 15.0921 2.75 16.0801 2.75V1.25C14.2481 1.25 12.7901 2.74366 12.7901 4.561H14.2901ZM14.2901 7.97V4.561H12.7901V7.97H14.2901ZM16.0801 9.78C15.0901 9.78 14.2901 8.98155 14.2901 7.97H12.7901C12.7901 9.79845 14.2501 11.28 16.0801 11.28V9.78ZM19.4601 9.78H16.0801V11.28H19.4601V9.78ZM21.2501 7.97C21.2501 8.97962 20.4421 9.78 19.4601 9.78V11.28C21.2781 11.28 22.7501 9.80038 22.7501 7.97H21.2501ZM21.2501 4.561V7.97H22.7501V4.561H21.2501ZM19.4601 2.75C20.44 2.75 21.2501 3.55827 21.2501 4.561H22.7501C22.7501 2.74173 21.2802 1.25 19.4601 1.25V2.75ZM19.4601 12.7197H16.0801V14.2197H19.4601V12.7197ZM22.7501 16.0307C22.7501 14.2007 21.2785 12.7197 19.4601 12.7197V14.2197C20.4417 14.2197 21.2501 15.0207 21.2501 16.0307H22.7501ZM22.7501 19.4397V16.0307H21.2501V19.4397H22.7501ZM19.4601 22.7497C21.28 22.7497 22.7501 21.2582 22.7501 19.4397H21.2501C21.2501 20.4412 20.4402 21.2497 19.4601 21.2497V22.7497ZM16.0801 22.7497H19.4601V21.2497H16.0801V22.7497ZM12.7901 19.4397C12.7901 21.2562 14.2482 22.7497 16.0801 22.7497V21.2497C15.092 21.2497 14.2901 20.4432 14.2901 19.4397H12.7901ZM12.7901 16.0307V19.4397H14.2901V16.0307H12.7901ZM16.0801 12.7197C14.2498 12.7197 12.7901 14.2026 12.7901 16.0307H14.2901C14.2901 15.0188 15.0904 14.2197 16.0801 14.2197V12.7197Z" fill="#242424"/>
</svg>
