<svg data-v-423bf9ae="" xmlns="http://www.w3.org/2000/svg" viewBox="0 0 365 90" class="iconLeft"><!----><!----><!----><g data-v-423bf9ae="" id="9e34ea45-da2c-43ef-a802-7c714d0e1d78" fill="#392644" transform="matrix(5.802707844736658,0,0,5.802707844736658,106.98258731223987,-5.483559241159334)"><path d="M6.61 11.59L6.61 13.72L0.52 13.72L0.52 13.20L1.75 12.91L1.75 5.96L0.52 5.67L0.52 5.15L4.38 5.15L4.38 5.67L3.14 5.96L3.14 12.88L5.64 12.88L6.01 11.59L6.61 11.59ZM10.44 13.87L10.44 13.87Q8.79 13.87 8.01 12.94L8.01 12.94L8.01 12.94Q7.22 12.01 7.22 10.32L7.22 10.32L7.22 10.32Q7.22 8.51 8.03 7.61L8.03 7.61L8.03 7.61Q8.83 6.71 10.29 6.71L10.29 6.71L10.29 6.71Q11.68 6.71 12.33 7.35L12.33 7.35L12.33 7.35Q12.98 7.99 12.98 9.37L12.98 9.37L12.98 9.37Q12.98 9.73 12.94 10.14L12.94 10.14L8.74 10.14L8.74 10.54L8.74 10.54Q8.74 11.77 9.26 12.40L9.26 12.40L9.26 12.40Q9.79 13.03 10.75 13.03L10.75 13.03L10.75 13.03Q11.65 13.03 12.80 12.71L12.80 12.71L12.89 13.20L12.89 13.20Q12.33 13.55 11.76 13.71L11.76 13.71L11.76 13.71Q11.19 13.87 10.44 13.87L10.44 13.87ZM8.76 9.56L11.52 9.41L11.52 9.10L11.52 9.10Q11.52 8.29 11.26 7.89L11.26 7.89L11.26 7.89Q10.99 7.49 10.37 7.49L10.37 7.49L10.37 7.49Q9.53 7.49 9.18 7.97L9.18 7.97L9.18 7.97Q8.82 8.46 8.76 9.56L8.76 9.56ZM13.82 13.72L13.82 13.23L15.01 12.91L15.01 7.63L13.89 7.63L13.89 7.15L15.01 6.79L15.01 6.79Q15.01 5.26 15.79 4.40L15.79 4.40L15.79 4.40Q16.58 3.53 17.89 3.53L17.89 3.53L17.89 3.53Q18.24 3.53 18.67 3.61L18.67 3.61L18.67 3.61Q19.10 3.70 19.28 3.81L19.28 3.81L19.07 5.54L18.44 5.54L18.24 4.58L18.24 4.58Q17.95 4.44 17.60 4.44L17.60 4.44L17.60 4.44Q16.91 4.44 16.66 4.91L16.66 4.91L16.66 4.91Q16.41 5.38 16.41 6.34L16.41 6.34L16.41 6.85L18.51 6.85L18.51 7.76L16.41 7.63L16.41 12.89L18.03 13.22L18.03 13.72L13.82 13.72ZM23.07 13.55L23.07 13.55Q22.67 13.66 21.99 13.76L21.99 13.76L21.99 13.76Q21.31 13.85 20.94 13.85L20.94 13.85L20.94 13.85Q19.81 13.85 19.81 12.71L19.81 12.71L19.81 7.64L18.79 7.64L18.79 7.10L19.94 6.69L20.55 5.29L21.18 5.29L21.18 6.85L23.27 6.85L23.27 7.76L21.18 7.64L21.18 12.80L23.07 13.08L23.07 13.55ZM27.26 6.71L27.26 6.71Q28.97 6.71 29.77 7.70L29.77 7.70L29.77 7.70Q30.58 8.69 30.58 10.32L30.58 10.32L30.58 10.32Q30.58 11.89 29.76 12.87L29.76 12.87L29.76 12.87Q28.95 13.86 27.26 13.86L27.26 13.86L27.26 13.86Q25.58 13.86 24.76 12.87L24.76 12.87L24.76 12.87Q23.94 11.89 23.94 10.32L23.94 10.32L23.94 10.32Q23.94 8.71 24.75 7.71L24.75 7.71L24.75 7.71Q25.56 6.71 27.26 6.71L27.26 6.71ZM29.06 10.28L29.06 10.28Q29.06 8.93 28.66 8.20L28.66 8.20L28.66 8.20Q28.25 7.46 27.22 7.46L27.22 7.46L27.22 7.46Q26.24 7.46 25.84 8.20L25.84 8.20L25.84 8.20Q25.45 8.95 25.45 10.28L25.45 10.28L25.45 10.28Q25.45 11.62 25.86 12.36L25.86 12.36L25.86 12.36Q26.26 13.10 27.30 13.10L27.30 13.10L27.30 13.10Q28.31 13.10 28.69 12.37L28.69 12.37L28.69 12.37Q29.06 11.63 29.06 10.28L29.06 10.28ZM39.26 13.55L39.26 13.55Q38.46 13.78 37.76 13.78L37.76 13.78L37.76 13.78Q37.39 13.78 37.08 13.58L37.08 13.58L37.08 13.58Q36.76 13.38 36.71 13.05L36.71 13.05L36.71 13.05Q35.98 13.43 35.37 13.64L35.37 13.64L35.37 13.64Q34.76 13.86 34.13 13.86L34.13 13.86L34.13 13.86Q33.26 13.86 32.87 13.39L32.87 13.39L32.87 13.39Q32.48 12.92 32.48 12.21L32.48 12.21L32.48 7.81L31.29 7.67L31.29 7.24L33.43 6.71L33.88 6.71L33.88 11.96L33.88 11.96Q33.88 12.46 34.10 12.68L34.10 12.68L34.10 12.68Q34.31 12.91 34.93 12.91L34.93 12.91L34.93 12.91Q35.27 12.91 35.76 12.78L35.76 12.78L35.76 12.78Q36.25 12.64 36.64 12.46L36.64 12.46L36.64 7.81L35.43 7.67L35.43 7.24L37.58 6.71L38.04 6.71L38.04 12.80L39.26 13.09L39.26 13.55ZM44.10 13.55L44.10 13.55Q43.69 13.66 43.02 13.76L43.02 13.76L43.02 13.76Q42.34 13.85 41.97 13.85L41.97 13.85L41.97 13.85Q40.84 13.85 40.84 12.71L40.84 12.71L40.84 7.64L39.82 7.64L39.82 7.10L40.96 6.69L41.58 5.29L42.21 5.29L42.21 6.85L44.30 6.85L44.30 7.76L42.21 7.64L42.21 12.80L44.10 13.08L44.10 13.55Z"></path></g><defs data-v-423bf9ae=""><linearGradient data-v-423bf9ae="" gradientTransform="rotate(25)" id="96a3170f-2498-46f0-a3df-dfe06eb4f092" x1="0%" y1="0%" x2="100%" y2="0%"><stop data-v-423bf9ae="" offset="0%" style="stop-color: rgb(142, 54, 222); stop-opacity: 1;"></stop><stop data-v-423bf9ae="" offset="100%" style="stop-color: rgb(247, 207, 245); stop-opacity: 1;"></stop></linearGradient></defs><g data-v-423bf9ae="" id="e99fced2-1f4b-4c08-bf97-5255d4044a1a" transform="matrix(2.8125,0,0,2.8125,0,0)" stroke="none" fill="url(#96a3170f-2498-46f0-a3df-dfe06eb4f092)"><path d="M16 32c8.837 0 16-7.163 16-16S24.837 0 16 0 0 7.163 0 16s7.163 16 16 16zM8.858 6.858h2v14.283h14.283v2H8.858V6.858z"></path></g><!----></svg>